<svg xmlns="http://www.w3.org/2000/svg" viewBox="0 0 64 64">
  <defs>
    <linearGradient id="bg" x1="0" y1="0" x2="1" y2="1">
      <stop offset="0%" stop-color="#0d1b2a"/>
      <stop offset="100%" stop-color="#1b2838"/>
    </linearGradient>
    <linearGradient id="shield" x1="0" y1="0" x2="0" y2="1">
      <stop offset="0%" stop-color="#4fc3f7"/>
      <stop offset="100%" stop-color="#0d3460"/>
    </linearGradient>
  </defs>
  <!-- Background -->
  <rect width="64" height="64" rx="8" fill="url(#bg)"/>
  <!-- Shield shape -->
  <path d="M32 6 L52 16 L52 34 C52 46 42 54 32 58 C22 54 12 46 12 34 L12 16 Z"
        fill="url(#shield)" opacity="0.3" stroke="#4fc3f7" stroke-width="1.5"/>
  <!-- Crosshair -->
  <circle cx="32" cy="30" r="12" fill="none" stroke="#4fc3f7" stroke-width="1.5" opacity="0.8"/>
  <circle cx="32" cy="30" r="4" fill="none" stroke="#4fc3f7" stroke-width="1" opacity="0.6"/>
  <line x1="32" y1="14" x2="32" y2="22" stroke="#4fc3f7" stroke-width="1.5" opacity="0.8"/>
  <line x1="32" y1="38" x2="32" y2="46" stroke="#4fc3f7" stroke-width="1.5" opacity="0.8"/>
  <line x1="16" y1="30" x2="24" y2="30" stroke="#4fc3f7" stroke-width="1.5" opacity="0.8"/>
  <line x1="40" y1="30" x2="48" y2="30" stroke="#4fc3f7" stroke-width="1.5" opacity="0.8"/>
  <!-- Grid lines on shield -->
  <line x1="22" y1="20" x2="42" y2="20" stroke="#ff9800" stroke-width="0.5" opacity="0.4"/>
  <line x1="19" y1="30" x2="45" y2="30" stroke="#ff9800" stroke-width="0.5" opacity="0.3"/>
  <line x1="22" y1="40" x2="42" y2="40" stroke="#ff9800" stroke-width="0.5" opacity="0.4"/>
  <line x1="27" y1="14" x2="27" y2="50" stroke="#ff9800" stroke-width="0.5" opacity="0.3"/>
  <line x1="37" y1="14" x2="37" y2="50" stroke="#ff9800" stroke-width="0.5" opacity="0.3"/>
  <!-- Star -->
  <polygon points="32,48 33.5,51 37,51.5 34.5,53.5 35,57 32,55.5 29,57 29.5,53.5 27,51.5 30.5,51"
           fill="#ff9800" opacity="0.9"/>
</svg>

